<svg xmlns="http://www.w3.org/2000/svg" version="1.1" xmlns:xlink="http://www.w3.org/1999/xlink" xmlns:svgjs="http://svgjs.com/svgjs" width="1440" height="560" preserveAspectRatio="none" viewBox="0 0 1440 560"><g mask="url(&quot;#SvgjsMask1025&quot;)" fill="none"><rect width="1440" height="560" x="0" y="0" fill="#0e2a47"></rect><path d="M 0,71 C 72,106.8 216,245.4 360,250 C 504,254.6 576,99.8 720,94 C 864,88.2 936,220.4 1080,221 C 1224,221.6 1368,121.8 1440,97L1440 560L0 560z" fill="#184a7e"></path><path d="M 0,352 C 96,374.2 288,468 480,463 C 672,458 768,314 960,327 C 1152,340 1344,487.8 1440,528L1440 560L0 560z" fill="#2264ab"></path></g><defs><mask id="SvgjsMask1025"><rect width="1440" height="560" fill="#ffffff"></rect></mask></defs></svg>